<svg width="16" height="16" viewBox="0 0 16 16" fill="none" xmlns="http://www.w3.org/2000/svg">
<path d="M4.58545 11.0027L3.66707 13.626V15H2.91201V13.626L2 11.0027H2.7996L3.44013 13.1626H3.14107L3.7816 11.0027H4.58545ZM4.36537 15L5.1183 11H6.31874L7.06956 15H6.29331L5.71854 11.5827H5.72278L5.13951 15H4.36537ZM4.96347 14.1165V13.3767H6.47782V14.1165H4.96347ZM9.65331 11.0027H10.9301V15H10.2111V11.542L10.2238 11.5528L9.67664 15H8.701L8.14107 11.5447L8.1538 11.5366V15H7.43479V11.0027H8.71161L9.21427 14.5908H9.14428L9.65331 11.0027ZM11.2958 15L12.0487 11H13.2492L14 15H13.2237L12.649 11.5827H12.6532L12.0699 15H11.2958ZM11.8939 14.1165V13.3767H13.4083V14.1165H11.8939Z" fill="black"/>
<path d="M11 8.02673C11 8.759 10.8565 9.27096 10.5692 9.56258C10.2819 9.85419 9.8564 10 9.29243 10H5V3.8955H5.98695V9.48481H7.4282V2H8.41514V9.48481H9.17493C9.38388 9.48481 9.54563 9.41354 9.66058 9.27096C9.77552 9.12838 9.8564 8.95018 9.90339 8.73633C9.95039 8.52248 9.97389 8.30863 9.97389 8.09478V3.8955H11V8.02673Z" fill="black"/>
</svg>
